<svg width="29" height="29" viewBox="0 0 29 29" fill="none" xmlns="http://www.w3.org/2000/svg">
<circle opacity="0.4" cx="14.5" cy="14.5" r="14.5" fill="#F3F2F0"/>
<path fill-rule="evenodd" clip-rule="evenodd" d="M14.3702 8.39471C12.3344 8.39471 10.6841 10.052 10.6841 12.0965C10.6841 12.6733 10.8183 13.2421 11.076 13.7576L14.4999 20.6052L17.9237 13.7576C18.1814 13.2421 18.3157 12.6733 18.3157 12.0965C18.3157 10.052 16.6653 8.39471 14.6296 8.39471H14.3702ZM14.5002 13.7206C15.3932 13.7206 16.1171 12.9936 16.1171 12.0968C16.1171 11.2001 15.3932 10.4731 14.5002 10.4731C13.6072 10.4731 12.8833 11.2001 12.8833 12.0968C12.8833 12.9936 13.6072 13.7206 14.5002 13.7206Z" fill="white"/>
</svg>
