<svg width="29" height="29" viewBox="0 0 29 29" fill="none" xmlns="http://www.w3.org/2000/svg">
<circle opacity="0.4" cx="14.5" cy="14.5" r="14.5" fill="#434343"/>
<path fill-rule="evenodd" clip-rule="evenodd" d="M14.3706 8.39474C12.3349 8.39474 10.6846 10.0521 10.6846 12.0965C10.6846 12.6733 10.8188 13.2421 11.0765 13.7576L14.5004 20.6053L17.9242 13.7576C18.1819 13.2421 18.3161 12.6733 18.3161 12.0965C18.3161 10.0521 16.6658 8.39474 14.6301 8.39474H14.3706ZM14.5006 13.7206C15.3936 13.7206 16.1175 12.9936 16.1175 12.0969C16.1175 11.2001 15.3936 10.4731 14.5006 10.4731C13.6077 10.4731 12.8838 11.2001 12.8838 12.0969C12.8838 12.9936 13.6077 13.7206 14.5006 13.7206Z" fill="white"/>
</svg>
