<svg width="29" height="29" viewBox="0 0 29 29" fill="none" xmlns="http://www.w3.org/2000/svg">
<circle opacity="0.4" cx="14.5" cy="14.5" r="14.5" fill="#434343"/>
<path fill-rule="evenodd" clip-rule="evenodd" d="M7.77148 14.5C7.77148 12.7153 8.48045 11.0037 9.74241 9.74176C11.0044 8.4798 12.716 7.77083 14.5007 7.77083C16.2853 7.77083 17.9969 8.4798 19.2589 9.74176C20.5209 11.0037 21.2298 12.7153 21.2298 14.5C21.2298 16.2847 20.5209 17.9963 19.2589 19.2582C17.9969 20.5202 16.2853 21.2292 14.5007 21.2292C12.716 21.2292 11.0044 20.5202 9.74241 19.2582C8.48045 17.9963 7.77148 16.2847 7.77148 14.5ZM15.0944 10.5417C15.0944 10.3842 15.0318 10.2332 14.9205 10.1218C14.8091 10.0105 14.6581 9.94792 14.5007 9.94792C14.3432 9.94792 14.1922 10.0105 14.0808 10.1218C13.9695 10.2332 13.9069 10.3842 13.9069 10.5417V14.5C13.9069 14.6007 13.9324 14.6997 13.9812 14.7878C14.0299 14.8758 14.1002 14.9501 14.1856 15.0035L16.5606 16.4879C16.6941 16.5714 16.8554 16.5985 17.0089 16.5632C17.0849 16.5457 17.1567 16.5134 17.2202 16.4682C17.2838 16.4229 17.3378 16.3656 17.3792 16.2995C17.4205 16.2333 17.4485 16.1597 17.4614 16.0828C17.4743 16.0059 17.472 15.9272 17.4545 15.8511C17.437 15.7751 17.4047 15.7033 17.3594 15.6398C17.3142 15.5762 17.2569 15.5223 17.1907 15.4809L15.0944 14.1707V10.5417Z" fill="white"/>
</svg>
