<svg width="57" height="38" viewBox="0 0 57 38" fill="none" xmlns="http://www.w3.org/2000/svg">
<g clip-path="url(#clip0_46_18)">
<path d="M51.6184 16.7631V18.5173H52.2493C52.9149 18.5173 53.4365 18.2673 53.4365 17.6005C53.4365 17.1591 53.2213 16.7612 52.3824 16.7612C52.1198 16.7612 51.9776 16.7518 51.6184 16.7631ZM49.875 22.9597V15.043C50.2999 15.043 52.2493 15.043 52.4681 15.043C54.5489 15.043 55.2892 16.1171 55.2892 17.5777C55.2892 19.0478 54.4176 19.6483 54.0036 19.8643L56.2083 22.9597H54.0948L52.2603 20.2147H51.6184V22.9597H49.875Z" fill="#F3F2F0"/>
<path d="M47.5004 19.5536C47.5004 21.9746 46.0435 22.9597 44.436 22.9597C42.5073 22.9597 41.167 21.7946 41.167 19.474V15.043H42.8823V19.0895C42.8823 20.3227 43.2357 21.2623 44.436 21.2623C45.4748 21.2623 45.7852 20.4591 45.7852 19.1917V15.043H47.5004V19.5536Z" fill="#F3F2F0"/>
<path d="M37.2083 38H0V0H37.2083V13.0015H35.4834V1.7616H1.72309V36.2384H35.4834V24.9136H37.2083V38Z" fill="#F3F2F0"/>
<path d="M29.5462 22.9597L26.1006 18.2089V22.9597H24.542V15.043H25.8713L29.3186 19.8146L29.3151 15.043H30.8719L30.8754 22.9597H29.5462Z" fill="#F3F2F0"/>
<path d="M33.25 15.043H38.7917V16.7392H36.7845V22.9597H35.2556V16.7392H33.25V15.043Z" fill="#F3F2F0"/>
<path d="M7.91699 15.043H9.60071V18.4921L12.01 15.043H14.0301L11.2633 18.6966L14.2503 22.9597H12.1157L9.60071 19.1926V22.9597H7.91699V15.043Z" fill="#F3F2F0"/>
<path d="M18.6037 21.3201C19.8774 21.3201 20.5382 20.2919 20.5382 19.0014C20.5382 17.6014 19.6858 16.6826 18.6037 16.6826C17.4936 16.6826 16.6709 17.6014 16.6709 19.0014C16.6709 20.3126 17.5316 21.3201 18.6037 21.3201ZM18.6037 15.043C20.6439 15.043 22.167 16.5618 22.167 19.0014C22.167 21.3201 20.6439 22.9597 18.6037 22.9597C16.5652 22.9597 15.042 21.439 15.042 19.0014C15.042 16.7807 16.4694 15.043 18.6037 15.043Z" fill="#F3F2F0"/>
</g>
<defs>
<clipPath id="clip0_46_18">
<rect width="57" height="38" fill="white"/>
</clipPath>
</defs>
</svg>
