<svg width="235" height="25" viewBox="0 0 235 25" fill="none" xmlns="http://www.w3.org/2000/svg">
<path d="M0 0H15.2681V4.14709H4.93952V21.3409H0V0ZM24.4161 0H29.8124C33.4118 1.02396 35.6142 4.13908 35.6142 8.20209V13.1417C35.6142 18.1411 32.2806 21.7052 27.1135 21.7052C21.9504 21.7052 18.6092 18.1411 18.6092 13.1417V8.20209C18.6092 4.13908 20.8167 1.02396 24.4161 0ZM46.0459 0H51.4945C54.6426 0.884353 56.7057 3.35029 57.2148 6.86395L52.3036 7.44079C51.9201 5.03038 50.769 3.78219 48.8111 3.78219C46.4046 3.78219 45.1845 5.49164 45.1845 8.65855V12.6842C45.1845 15.853 46.4046 17.5619 48.8111 17.5619C50.769 17.5619 51.9201 16.3113 52.3036 13.9014L57.2148 14.4812C56.57 18.9334 53.4283 21.7052 48.7447 21.7052C43.5777 21.7052 40.2424 18.1411 40.2424 13.1089V8.23306C40.2424 4.14469 42.446 1.02449 46.0459 0ZM218.512 0H235V4.14709H229.228V21.3409H224.288V4.14709H218.512V0ZM198.003 0H212.605V4.14709H202.948V8.32461H211.291V12.4709H202.948V17.1967H212.605V21.3409H198.003V0ZM179.869 8.62839V21.3409H174.928V0H179.261L187.155 12.7162V0H192.096V21.3409H187.764L179.869 8.62839ZM164.305 21.3409H169.248V16.8275H164.305V21.3409ZM160.005 25H155.06V21.3409H141.423V0H146.368V17.1967H152.72V0H157.661V17.1967H160.005V25ZM122.681 21.3409H118.349V0H123.293V12.7162L131.186 0H135.516V21.3409H130.574V8.62839L122.681 21.3409ZM85.3327 21.3409H81.0001V0H85.9404V12.7162L93.8326 0H98.1658V21.3409H93.2254V8.62839L85.3327 21.3409ZM60.3668 0H76.8596V4.14709H71.0781V21.3409H66.1405V4.14709H60.3668V0ZM30.6764 12.7162V8.62839C30.6764 5.39768 29.3581 3.78219 27.1135 3.78219C24.865 3.78219 23.5516 5.39768 23.5516 8.62839V12.7162C23.5516 15.9443 24.865 17.5619 27.1135 17.5619C29.3581 17.5619 30.6764 15.9443 30.6764 12.7162Z" fill="#F3F2F0"/>
<path d="M105.078 0H111.435V8.3054H105.078V0ZM105.078 21.3574H111.435V12.4869H105.078V21.3574Z" fill="#F3F2F0"/>
</svg>
