<svg width="29" height="29" viewBox="0 0 29 29" fill="none" xmlns="http://www.w3.org/2000/svg">
<circle opacity="0.4" cx="14.5" cy="14.5" r="14.5" fill="#434343"/>
<path d="M19.9173 12.0815V17.2083C19.9173 17.6228 19.759 18.0217 19.4746 18.3232C19.1903 18.6248 18.8014 18.8063 18.3877 18.8306L18.2923 18.8333H10.709C10.2945 18.8334 9.89566 18.675 9.59409 18.3906C9.29252 18.1063 9.11101 17.7174 9.08669 17.3037L9.08398 17.2083V12.0815L14.2 15.4923L14.2629 15.5281C14.3369 15.5643 14.4182 15.5831 14.5007 15.5831C14.5831 15.5831 14.6644 15.5643 14.7384 15.5281L14.8013 15.4923L19.9173 12.0815Z" fill="white"/>
<path d="M18.2925 10.1667C18.8775 10.1667 19.3904 10.4754 19.6764 10.9396L14.5008 14.39L9.3252 10.9396C9.46104 10.7191 9.64764 10.5342 9.86945 10.4004C10.0912 10.2666 10.3418 10.1878 10.6003 10.1705L10.7092 10.1667H18.2925Z" fill="white"/>
</svg>
