<svg width="29" height="29" viewBox="0 0 29 29" fill="none" xmlns="http://www.w3.org/2000/svg">
<circle opacity="0.4" cx="14.5" cy="14.5" r="14.5" fill="#434343"/>
<path d="M20.9924 17.8202C20.8765 18.7009 20.444 19.5094 19.7755 20.0946C19.1071 20.6797 18.2485 21.0016 17.3602 21C12.1991 21 8.00001 16.801 8.00001 11.6399C7.99841 10.7515 8.32026 9.89296 8.90543 9.22454C9.4906 8.55612 10.2991 8.12357 11.1799 8.00767C11.4026 7.98047 11.6281 8.02604 11.8228 8.13756C12.0175 8.24909 12.171 8.42059 12.2602 8.62647L13.633 11.6913V11.6991C13.7013 11.8567 13.7295 12.0287 13.7151 12.1999C13.7007 12.371 13.6441 12.536 13.5505 12.6799C13.5388 12.6975 13.5264 12.7137 13.5134 12.73L12.1601 14.3342C12.6469 15.3235 13.6818 16.3492 14.6841 16.8374L16.2662 15.4912C16.2817 15.4781 16.298 15.466 16.3149 15.4548C16.4588 15.3589 16.6243 15.3003 16.7965 15.2844C16.9686 15.2685 17.142 15.2958 17.301 15.3638L17.3095 15.3677L20.3717 16.7399C20.5779 16.8288 20.7498 16.982 20.8617 17.1768C20.9736 17.3715 21.0195 17.5972 20.9924 17.8202Z" fill="white" stroke="#ADACAB"/>
</svg>
