<svg width="32" height="32" viewBox="0 0 32 32" fill="none" xmlns="http://www.w3.org/2000/svg">
<circle opacity="0.2" cx="16" cy="16" r="15.625" stroke="#F3F2F0" stroke-width="0.75"/>
<path d="M23.3169 20.9992H21.4555C20.7516 20.9992 20.5395 20.4346 19.2776 19.1844C18.1748 18.132 17.7091 18.0011 17.4301 18.0011C17.0443 18.0011 16.9391 18.1061 16.9391 18.6319V20.2893C16.9391 20.7375 16.7923 21 15.6095 21C14.4621 20.9237 13.3494 20.5785 12.3631 19.993C11.3768 19.4074 10.5451 18.5982 9.93645 17.632C8.49138 15.8511 7.48591 13.761 7 11.5277C7 11.2515 7.10604 11.0011 7.63786 11.0011H9.49762C9.97561 11.0011 10.1477 11.2119 10.3353 11.6989C11.2383 14.3303 12.7791 16.6192 13.4047 16.6192C13.6445 16.6192 13.7489 16.5142 13.7489 15.9222V13.2117C13.6698 11.9751 13.0067 11.871 13.0067 11.4235C13.0151 11.3055 13.0696 11.1953 13.1587 11.1164C13.2478 11.0376 13.3644 10.9962 13.4839 11.0011H16.4073C16.8069 11.0011 16.9391 11.1982 16.9391 11.6715V15.3302C16.9391 15.7251 17.1104 15.856 17.2311 15.856C17.4709 15.856 17.6552 15.7251 18.0949 15.2906C19.0373 14.1526 19.8072 12.8847 20.3804 11.5269C20.4391 11.3639 20.55 11.2243 20.6963 11.1295C20.8425 11.0347 21.016 10.9899 21.1904 11.0019H23.051C23.6089 11.0019 23.7272 11.2781 23.6089 11.6723C22.9322 13.1732 22.0949 14.598 21.1113 15.9222C20.9106 16.2251 20.8307 16.3826 21.1113 16.7379C21.2956 17.0142 21.9482 17.5537 22.3862 18.0666C23.0241 18.6965 23.5534 19.4251 23.9539 20.223C24.1138 20.7367 23.8479 20.9992 23.3169 20.9992Z" fill="#F3F2F0"/>
</svg>
