<svg width="32" height="32" viewBox="0 0 32 32" fill="none" xmlns="http://www.w3.org/2000/svg">
<circle opacity="0.2" cx="16" cy="16" r="15.625" stroke="#F3F2F0" stroke-width="0.75"/>
<path d="M16.5301 7.95004C12.3871 7.95009 9.0103 11.3097 9.0103 15.4325C9.0103 16.7468 9.35568 18.0238 10.0016 19.1519L8.95177 22.9868L8.92892 23.0703L9.01265 23.0484L12.9509 22.0184C14.0467 22.6087 15.2771 22.9225 16.5301 22.9225C20.6731 22.9225 24.05 19.5629 24.05 15.44C24.05 13.4393 23.2683 11.559 21.8494 10.1472C21.1537 9.44797 20.325 8.89359 19.4118 8.51637C18.4985 8.13914 17.5189 7.94663 16.5301 7.95004ZM16.5301 7.95004C16.5301 7.95004 16.5301 7.95004 16.5301 7.95004V8.00004L16.53 7.95004C16.53 7.95004 16.53 7.95004 16.5301 7.95004ZM20.233 18.1043C20.3136 17.8828 20.3541 17.678 20.3677 17.517C20.3744 17.4366 20.3746 17.3662 20.3693 17.3098C20.3642 17.2557 20.3536 17.2069 20.3336 17.1756C20.3001 17.1233 20.2493 17.0883 20.1886 17.0561C20.1523 17.0369 20.1084 17.0168 20.059 16.9941C20.0276 16.9797 19.9941 16.9643 19.9587 16.9474C19.9135 16.9258 19.8248 16.8828 19.714 16.8291C19.3688 16.6617 18.8091 16.3904 18.6822 16.3387L18.6822 16.3386L18.6797 16.3378C18.5947 16.3084 18.5106 16.2814 18.4298 16.2903C18.3437 16.2998 18.27 16.3483 18.2005 16.446L18.1999 16.4468C18.0737 16.6315 17.7214 17.0494 17.6157 17.1695L17.6157 17.1695L17.6147 17.1706C17.5671 17.2282 17.5231 17.2542 17.4751 17.2597C17.4247 17.2655 17.3601 17.2501 17.2692 17.2031L17.2692 17.2031L17.2678 17.2024C17.2397 17.189 17.203 17.1733 17.1586 17.1543C16.8996 17.0434 16.3786 16.8204 15.7795 16.2877L15.7794 16.2876C15.2283 15.7986 14.8624 15.1975 14.7492 15.0099C14.7022 14.926 14.7026 14.8702 14.7182 14.827C14.7355 14.7792 14.774 14.7379 14.8242 14.688C14.8823 14.6301 14.9521 14.5463 15.0185 14.4664C15.0487 14.4301 15.0783 14.3945 15.1057 14.3627C15.1927 14.2617 15.2338 14.1794 15.2858 14.0752C15.2907 14.0654 15.2958 14.0553 15.301 14.045L15.301 14.045L15.3015 14.0439C15.371 13.8968 15.3346 13.7745 15.2859 13.6776C15.2419 13.59 14.8661 12.6778 14.7147 12.3014L14.7147 12.3014L14.7145 12.3007C14.6367 12.1151 14.5529 12.0236 14.4647 11.9815C14.3977 11.9495 14.3294 11.9489 14.2817 11.9484C14.2695 11.9483 14.2587 11.9482 14.2495 11.9476L14.2495 11.9475H14.2462H13.8844C13.7447 11.9475 13.5346 11.9967 13.3502 12.1961L13.3502 12.1961L13.3495 12.1969C13.3368 12.2113 13.3221 12.2273 13.3059 12.245C13.1109 12.4578 12.6887 12.9186 12.6887 13.7825C12.6887 14.2513 12.8602 14.7096 13.0409 15.0634C13.22 15.4142 13.4103 15.6666 13.4586 15.7307L13.4596 15.732C13.4635 15.7376 13.4695 15.7463 13.4775 15.7579C13.658 16.0205 14.867 17.7799 16.6685 18.5534C17.1154 18.7493 17.4641 18.8624 17.7364 18.9453C18.1911 19.0909 18.6066 19.0675 18.934 19.022L18.9343 19.022C19.1246 18.9944 19.4084 18.8782 19.6626 18.7156C19.9154 18.5539 20.1518 18.3382 20.233 18.1043ZM20.233 18.1043C20.233 18.1044 20.233 18.1045 20.2329 18.1046L20.1859 18.0875L20.2332 18.1039C20.2331 18.104 20.2331 18.1041 20.233 18.1043ZM13.1255 20.5666L10.8576 21.1597L11.4603 18.9632L11.4662 18.9416L11.454 18.9228L11.3036 18.6909C11.3036 18.6908 11.3035 18.6907 11.3034 18.6906C10.6888 17.7138 10.3624 16.5849 10.3616 15.4325C10.3616 12.0554 13.1279 9.30254 16.5226 9.30254C18.1677 9.30254 19.7152 9.9423 20.8742 11.1029L20.8744 11.1031C21.4482 11.6714 21.9029 12.3473 22.2122 13.0918C22.5214 13.8362 22.6791 14.6343 22.6761 15.4398L22.6761 15.4402C22.6911 18.8171 19.925 21.5625 16.5301 21.5625C15.4236 21.5625 14.3394 21.2649 13.3898 20.707C13.3898 20.707 13.3897 20.7069 13.3897 20.7069L13.1638 20.5721L13.1458 20.5613L13.1255 20.5666Z" fill="#F3F2F0" stroke="#F3F2F0" stroke-width="0.1"/>
</svg>
