<svg width="32" height="32" viewBox="0 0 32 32" fill="none" xmlns="http://www.w3.org/2000/svg">
<circle opacity="0.2" cx="16" cy="16" r="15.625" stroke="#F3F2F0" stroke-width="0.75"/>
<path d="M14.4 18.6326L18.552 16.2134L14.4 13.7941V18.6326ZM23.648 12.3183C23.752 12.6973 23.824 13.2054 23.872 13.8505C23.928 14.4957 23.952 15.0521 23.952 15.536L24 16.2134C24 17.9794 23.872 19.2778 23.648 20.1084C23.448 20.8342 22.984 21.3019 22.264 21.5035C21.888 21.6084 21.2 21.6809 20.144 21.7293C19.104 21.7858 18.152 21.81 17.272 21.81L16 21.8584C12.648 21.8584 10.56 21.7293 9.736 21.5035C9.016 21.3019 8.552 20.8342 8.352 20.1084C8.248 19.7294 8.176 19.2213 8.128 18.5762C8.072 17.9311 8.048 17.3746 8.048 16.8908L8 16.2134C8 14.4473 8.128 13.1489 8.352 12.3183C8.552 11.5925 9.016 11.1248 9.736 10.9232C10.112 10.8184 10.8 10.7458 11.856 10.6974C12.896 10.6409 13.848 10.6167 14.728 10.6167L16 10.5684C19.352 10.5684 21.44 10.6974 22.264 10.9232C22.984 11.1248 23.448 11.5925 23.648 12.3183Z" fill="#F3F2F0"/>
</svg>
