<svg width="470" height="180" viewBox="0 0 470 180" fill="none" xmlns="http://www.w3.org/2000/svg">
<path opacity="0.03" d="M39.08 79.45C32.99 79.45 27.48 78.435 22.55 76.405C17.62 74.2783 13.415 71.4267 9.935 67.85C6.455 64.1767 3.74833 60.02 1.815 55.38C-0.0216665 50.6433 -0.94 45.665 -0.94 40.445C-0.94 33.195 0.655 26.5733 3.845 20.58C7.13167 14.5867 11.7717 9.80166 17.765 6.22499C23.855 2.55166 31.0083 0.714992 39.225 0.714992C47.5383 0.714992 54.6433 2.55166 60.54 6.22499C66.4367 9.80166 70.9317 14.5867 74.025 20.58C77.215 26.4767 78.81 32.8567 78.81 39.72C78.81 40.88 78.7617 42.0883 78.665 43.345C78.5683 44.505 78.4717 45.4717 78.375 46.245H19.65C20.0367 50.1117 21.1483 53.495 22.985 56.395C24.9183 59.295 27.335 61.5183 30.235 63.065C33.2317 64.515 36.4217 65.24 39.805 65.24C43.6717 65.24 47.2967 64.3217 50.68 62.485C54.16 60.5517 56.5283 58.0383 57.785 54.945L74.46 59.585C72.6233 63.4517 69.965 66.8833 66.485 69.88C63.1017 72.8767 59.09 75.245 54.45 76.985C49.81 78.6283 44.6867 79.45 39.08 79.45ZM19.215 33.92H58.945C58.5583 30.0533 57.4467 26.7183 55.61 23.915C53.87 21.015 51.55 18.7917 48.65 17.245C45.75 15.6017 42.5117 14.78 38.935 14.78C35.455 14.78 32.265 15.6017 29.365 17.245C26.5617 18.7917 24.2417 21.015 22.405 23.915C20.665 26.7183 19.6017 30.0533 19.215 33.92ZM129.652 79.45C123.465 79.45 117.907 78.435 112.977 76.405C108.047 74.2783 103.842 71.3783 100.362 67.705C96.8818 63.935 94.1751 59.6817 92.2418 54.945C90.4051 50.2083 89.4868 45.23 89.4868 40.01C89.4868 32.8567 91.0818 26.3317 94.2718 20.435C97.5584 14.4417 102.198 9.65666 108.192 6.08C114.185 2.50333 121.29 0.714992 129.507 0.714992C137.723 0.714992 144.78 2.50333 150.677 6.08C156.573 9.65666 160.972 14.345 163.872 20.145L144.877 25.945C143.233 23.1417 141.058 21.015 138.352 19.565C135.645 18.0183 132.648 17.245 129.362 17.245C125.688 17.245 122.305 18.2117 119.212 20.145C116.215 21.9817 113.847 24.64 112.107 28.12C110.367 31.5033 109.497 35.4667 109.497 40.01C109.497 44.4567 110.367 48.42 112.107 51.9C113.943 55.2833 116.36 57.99 119.357 60.02C122.353 61.9533 125.688 62.92 129.362 62.92C131.682 62.92 133.857 62.5333 135.887 61.76C138.013 60.9867 139.898 59.9233 141.542 58.57C143.185 57.2167 144.393 55.67 145.167 53.93L164.162 59.73C162.422 63.5 159.86 66.8833 156.477 69.88C153.19 72.8767 149.275 75.245 144.732 76.985C140.285 78.6283 135.258 79.45 129.652 79.45ZM197.287 78V18.985H173.217V2.01999H240.932V18.985H216.717V78H197.287ZM255.443 78V2.01999H274.873V25.945H292.128C301.214 25.945 308.174 28.265 313.008 32.905C317.841 37.545 320.258 43.6833 320.258 51.32C320.258 56.4433 319.243 61.035 317.213 65.095C315.183 69.155 312.186 72.345 308.223 74.665C304.259 76.8883 299.329 78 293.433 78H255.443ZM274.873 63.21H290.388C292.998 63.21 295.124 62.6783 296.768 61.615C298.508 60.5517 299.764 59.15 300.538 57.41C301.408 55.67 301.843 53.6883 301.843 51.465C301.843 49.3383 301.456 47.4533 300.683 45.81C299.909 44.07 298.653 42.7167 296.913 41.75C295.269 40.6867 293.046 40.155 290.243 40.155H274.873V63.21ZM-1.81 178L24.87 138.705L0.075 102.02H21.68L41.11 130.875H47.055V102.02H67.065V130.875H73.445L92.44 102.02H114.19L89.395 138.705L116.22 178H94.035L73.445 147.695H67.065V178H47.2V147.695H41.11L20.23 178H-1.81ZM131.655 178V102.165H151.085V152.045L185.16 102.02H202.85V178H183.42V129.28L149.78 178H131.655ZM218.695 179.015V161.76C221.015 161.663 223.094 161.083 224.93 160.02C226.767 158.957 228.362 157.168 229.715 154.655C231.165 152.045 232.277 148.42 233.05 143.78C233.92 139.14 234.5 133.195 234.79 125.945L235.805 102.02H292.79V178H273.36V118.985H252.915L252.625 127.83C252.239 137.787 251.272 146.052 249.725 152.625C248.179 159.198 246.004 164.418 243.2 168.285C240.494 172.055 237.11 174.762 233.05 176.405C228.99 178.048 224.205 178.918 218.695 179.015ZM314.066 178V102.02H333.496V125.945H350.751C359.837 125.945 366.797 128.265 371.631 132.905C376.464 137.545 378.881 143.683 378.881 151.32C378.881 156.443 377.866 161.035 375.836 165.095C373.806 169.155 370.809 172.345 366.846 174.665C362.882 176.888 357.952 178 352.056 178H314.066ZM333.496 163.21H349.011C351.621 163.21 353.747 162.678 355.391 161.615C357.131 160.552 358.387 159.15 359.161 157.41C360.031 155.67 360.466 153.688 360.466 151.465C360.466 149.338 360.079 147.453 359.306 145.81C358.532 144.07 357.276 142.717 355.536 141.75C353.892 140.687 351.669 140.155 348.866 140.155H333.496V163.21ZM429.957 179.45C423.867 179.45 418.357 178.435 413.427 176.405C408.497 174.278 404.292 171.427 400.812 167.85C397.332 164.177 394.625 160.02 392.692 155.38C390.855 150.643 389.937 145.665 389.937 140.445C389.937 133.195 391.532 126.573 394.722 120.58C398.009 114.587 402.649 109.802 408.642 106.225C414.732 102.552 421.885 100.715 430.102 100.715C438.415 100.715 445.52 102.552 451.417 106.225C457.314 109.802 461.809 114.587 464.902 120.58C468.092 126.477 469.687 132.857 469.687 139.72C469.687 140.88 469.639 142.088 469.542 143.345C469.445 144.505 469.349 145.472 469.252 146.245H410.527C410.914 150.112 412.025 153.495 413.862 156.395C415.795 159.295 418.212 161.518 421.112 163.065C424.109 164.515 427.299 165.24 430.682 165.24C434.549 165.24 438.174 164.322 441.557 162.485C445.037 160.552 447.405 158.038 448.662 154.945L465.337 159.585C463.5 163.452 460.842 166.883 457.362 169.88C453.979 172.877 449.967 175.245 445.327 176.985C440.687 178.628 435.564 179.45 429.957 179.45ZM410.092 133.92H449.822C449.435 130.053 448.324 126.718 446.487 123.915C444.747 121.015 442.427 118.792 439.527 117.245C436.627 115.602 433.389 114.78 429.812 114.78C426.332 114.78 423.142 115.602 420.242 117.245C417.439 118.792 415.119 121.015 413.282 123.915C411.542 126.718 410.479 130.053 410.092 133.92ZM407.772 90.275V73.02H423.867V90.275H407.772ZM435.612 90.275V73.02H451.707V90.275H435.612Z" fill="#434343"/>
</svg>
